<svg width="57" height="84" viewBox="0 0 57 84" fill="none" xmlns="http://www.w3.org/2000/svg">
<path d="M57 16.3601C57 20.6974 55.2755 24.8572 52.2055 27.9251C49.1355 30.9929 44.9713 32.7177 40.6284 32.7202C36.2855 32.7228 32.1193 31.0029 29.0457 27.9387C25.9721 24.8745 24.2426 20.7167 24.2375 16.3794C24.2324 12.0421 25.952 7.88027 29.0184 4.80882C32.0848 1.73737 36.2469 0.00768877 40.5898 2.55723e-05C44.9327 -0.00763775 49.1009 1.70734 52.1781 4.76795C55.2554 7.82856 56.9897 11.9843 57 16.3216" fill="#047857"/>
<path d="M29.1213 39.9515C32.3944 46.5269 65.0637 74.0577 54.1866 84C45.1628 83.7926 1.48909 61.4127 0.141934 49.9229C-1.38893 36.8663 9.7712 28.2837 18.7954 28.4761C24.6847 28.6016 25.8482 33.3762 29.1213 39.9515Z" fill="#047857"/>
</svg>
